<?xml version="1.0" standalone="no"?>
<!DOCTYPE svg PUBLIC "-//W3C//DTD SVG 20010904//EN"
 "http://www.w3.org/TR/2001/REC-SVG-20010904/DTD/svg10.dtd">
<svg version="1.0" xmlns="http://www.w3.org/2000/svg"
 width="600.000000pt" height="600.000000pt" viewBox="0 0 600.000000 600.000000"
 preserveAspectRatio="xMidYMid meet">
<metadata>
Created by potrace 1.11, written by Peter Selinger 2001-2013
</metadata>
<g transform="translate(0.000000,600.000000) scale(0.100000,-0.100000)"
fill="#000000" stroke="none">
<path d="M2800 5993 c-1158 -84 -2153 -809 -2584 -1880 -260 -647 -281 -1403
-58 -2063 159 -468 402 -853 758 -1200 155 -151 256 -233 429 -348 622 -415
1396 -582 2137 -461 1176 191 2127 1060 2423 2214 346 1348 -280 2753 -1515
3403 -428 225 -930 346 -1410 340 -74 -1 -155 -3 -180 -5z m230 -228 c7 -8 17
-15 22 -15 6 0 47 -22 92 -49 44 -26 88 -51 96 -55 8 -3 29 -15 45 -26 17 -11
37 -23 45 -27 8 -4 67 -37 130 -74 63 -36 169 -97 235 -135 66 -38 129 -74
140 -81 11 -7 32 -17 48 -24 15 -6 27 -15 27 -20 0 -5 5 -9 11 -9 6 0 48 -22
93 -49 44 -26 88 -51 96 -55 8 -3 29 -15 45 -26 17 -11 37 -23 45 -27 8 -4 75
-42 148 -85 73 -43 135 -78 137 -78 2 0 48 -26 102 -58 54 -32 105 -61 113
-65 8 -4 22 -11 30 -16 30 -19 235 -138 250 -144 8 -4 22 -11 30 -17 28 -19
225 -132 245 -141 73 -33 120 -69 123 -93 2 -15 -2 -26 -8 -26 -6 0 -59 -28
-118 -63 -59 -35 -114 -66 -122 -70 -8 -4 -28 -16 -45 -27 -16 -11 -39 -24
-50 -29 -11 -5 -54 -29 -95 -53 -41 -24 -82 -47 -90 -51 -8 -4 -22 -11 -30
-17 -30 -20 -272 -160 -277 -160 -2 0 -65 -36 -139 -80 -75 -44 -137 -80 -139
-80 -1 0 -63 -35 -136 -78 -74 -43 -141 -81 -149 -85 -8 -4 -22 -11 -30 -17
-30 -19 -266 -155 -290 -168 -14 -6 -32 -16 -40 -22 -26 -17 -221 -130 -225
-130 -4 0 -267 -152 -295 -170 -8 -6 -25 -14 -37 -19 -11 -6 -24 -15 -28 -20
-14 -24 -73 -6 -160 49 -16 11 -43 26 -60 34 -16 8 -52 29 -80 45 -27 17 -59
35 -71 40 -11 5 -52 28 -89 51 -37 23 -78 46 -89 51 -12 5 -28 13 -36 19 -43
28 -173 100 -180 100 -5 0 -15 6 -22 13 -8 6 -27 19 -43 28 -84 44 -120 65
-125 70 -3 3 -18 13 -35 22 -16 8 -52 27 -80 42 -27 14 -63 35 -80 45 -16 11
-41 25 -55 30 -13 6 -27 14 -30 18 -3 4 -27 18 -53 32 -26 14 -60 32 -75 40
-55 31 -167 95 -184 105 -9 6 -41 23 -70 39 -29 16 -55 31 -58 35 -3 3 -32 20
-65 36 -90 46 -149 79 -155 87 -3 4 -17 12 -30 18 -14 5 -38 19 -55 30 -16 11
-37 22 -45 26 -8 3 -22 10 -30 15 -8 5 -25 13 -37 19 -13 5 -23 14 -23 20 0 5
-9 10 -19 10 -11 0 -26 7 -35 15 -8 8 -21 15 -28 15 -8 0 -18 4 -24 9 -5 6
-29 21 -54 34 -25 14 -61 33 -80 43 -19 11 -37 21 -40 24 -3 3 -18 11 -33 18
-24 10 -28 17 -25 45 2 26 8 33 28 35 14 2 29 10 33 18 4 8 14 14 22 14 7 0
20 6 27 13 14 12 71 45 168 94 30 15 61 34 68 40 7 7 20 13 28 13 8 0 14 4 14
10 0 5 11 12 25 16 13 3 29 12 36 20 6 8 20 14 30 14 11 0 19 4 19 9 0 5 12
14 28 20 15 6 41 20 57 30 28 18 60 36 155 87 19 11 37 21 40 24 3 3 21 13 40
24 92 49 127 69 155 86 17 11 53 31 80 45 28 14 64 34 80 45 17 11 44 26 60
34 17 9 57 31 90 50 33 19 80 45 105 58 25 13 47 26 50 29 3 4 28 18 55 33 28
15 57 31 65 36 31 20 166 96 190 108 14 7 48 26 75 43 28 16 64 37 80 45 17 8
44 23 60 34 17 11 39 24 51 29 11 5 51 28 88 50 36 23 69 41 72 41 4 0 43 23
89 50 46 28 87 50 93 50 5 0 15 7 22 15 7 8 23 15 35 15 12 0 28 -7 35 -15z
m-1790 -1970 c7 -8 20 -15 30 -15 10 0 23 -7 30 -15 7 -8 19 -15 27 -15 7 0
16 -7 19 -15 4 -8 14 -15 24 -15 10 0 23 -6 29 -14 7 -8 23 -17 36 -20 14 -4
25 -11 25 -16 0 -6 6 -10 13 -10 6 0 44 -20 82 -45 39 -24 93 -56 120 -70 28
-14 64 -35 80 -45 17 -11 42 -25 58 -31 15 -6 27 -15 27 -20 0 -5 5 -9 11 -9
5 0 58 -28 117 -63 59 -35 114 -66 122 -70 8 -4 29 -16 45 -27 17 -11 42 -25
58 -31 15 -6 27 -15 27 -20 0 -5 5 -9 11 -9 6 0 48 -22 93 -49 44 -26 88 -51
96 -55 8 -3 29 -15 45 -26 17 -11 37 -23 45 -27 15 -7 221 -125 250 -144 8 -5
24 -13 35 -18 11 -5 36 -20 55 -32 20 -13 60 -37 90 -52 53 -28 56 -28 90 -13
19 9 49 25 65 36 17 11 37 23 45 26 16 8 96 53 245 139 50 28 97 55 105 58 8
4 22 11 30 17 28 18 172 100 176 100 2 0 52 29 111 63 60 35 115 67 123 70 8
4 22 11 30 17 28 19 171 100 175 100 3 0 53 29 112 63 60 35 115 67 123 71 8
4 24 12 35 19 11 7 51 30 90 52 38 22 79 45 90 52 11 7 27 15 35 19 8 4 49 28
90 52 41 25 82 45 91 44 9 0 39 -14 66 -31 28 -17 53 -31 56 -31 3 0 50 -26
104 -58 54 -32 105 -61 113 -65 8 -4 22 -11 30 -16 8 -6 59 -35 113 -67 64
-38 97 -62 97 -74 0 -17 -56 -55 -179 -121 -24 -13 -51 -29 -60 -34 -9 -6 -47
-28 -86 -50 -38 -22 -79 -45 -90 -52 -11 -7 -27 -15 -35 -19 -8 -4 -62 -35
-120 -69 -58 -34 -112 -64 -120 -68 -8 -4 -28 -16 -45 -27 -16 -11 -37 -23
-45 -27 -8 -4 -62 -34 -120 -68 -58 -34 -112 -65 -120 -69 -8 -3 -28 -15 -45
-26 -16 -11 -37 -23 -45 -27 -18 -8 -159 -89 -180 -103 -8 -6 -26 -16 -40 -22
-14 -7 -68 -38 -120 -69 -52 -30 -102 -58 -110 -62 -8 -4 -28 -16 -45 -27 -16
-11 -37 -23 -45 -26 -8 -4 -52 -29 -96 -55 -45 -27 -87 -49 -93 -49 -6 0 -11
-4 -11 -9 0 -5 -12 -14 -27 -20 -16 -6 -35 -15 -43 -21 -26 -17 -234 -137
-250 -143 -8 -4 -22 -11 -30 -17 -65 -42 -170 -100 -183 -100 -14 0 -131 63
-187 100 -8 6 -24 14 -35 19 -11 5 -54 29 -95 53 -41 24 -82 47 -90 51 -8 4
-31 17 -50 28 -19 12 -55 32 -80 46 -25 13 -52 28 -60 33 -44 27 -178 103
-195 111 -11 5 -42 23 -70 40 -27 16 -63 37 -80 45 -16 8 -43 23 -60 34 -16
11 -40 24 -52 29 -12 6 -39 21 -60 34 -34 21 -95 56 -203 113 -19 11 -37 22
-40 26 -3 4 -17 12 -30 18 -14 5 -38 19 -55 30 -16 10 -52 31 -80 45 -27 15
-63 34 -80 42 -16 9 -32 19 -35 22 -3 4 -16 12 -30 19 -14 6 -61 32 -105 57
-44 25 -93 53 -110 61 -16 8 -43 23 -60 34 -16 10 -54 30 -82 45 -29 14 -53
30 -53 35 0 6 -9 10 -19 10 -11 0 -26 6 -33 13 -8 6 -27 19 -43 28 -88 46
-120 65 -125 71 -3 4 -17 12 -30 17 -14 6 -32 15 -40 20 -8 5 -23 12 -32 15
-12 3 -18 15 -18 34 0 26 7 33 58 58 31 16 59 31 62 34 8 8 40 26 100 57 30
15 61 34 68 40 7 7 22 13 33 13 10 0 19 4 19 10 0 5 24 21 53 36 28 14 63 32
77 41 14 8 43 25 65 38 47 27 107 32 125 10z m-1100 -800 c0 -728 0 -735 -20
-735 -18 0 -20 7 -20 70 0 56 -3 70 -15 70 -12 0 -15 15 -15 79 0 55 -4 82
-14 90 -11 9 -15 53 -18 193 -2 134 -6 182 -15 186 -17 5 -17 74 0 90 8 9 13
66 15 192 3 139 7 181 18 191 10 8 14 34 14 85 0 59 3 74 15 74 12 0 15 15 15
75 0 68 2 75 20 75 20 0 20 -7 20 -735z m1082 -125 c13 -6 37 -19 53 -30 17
-11 39 -24 50 -30 11 -6 34 -19 50 -30 17 -11 37 -23 45 -26 8 -4 52 -29 96
-55 45 -27 87 -49 93 -49 6 0 11 -4 11 -9 0 -5 12 -14 28 -20 15 -6 36 -16 47
-23 11 -7 39 -25 63 -40 24 -16 46 -28 49 -28 3 0 42 -22 88 -50 46 -27 88
-50 94 -50 6 0 11 -4 11 -9 0 -5 12 -14 28 -20 15 -7 36 -17 47 -24 11 -7 63
-37 115 -67 52 -30 104 -61 115 -67 11 -7 32 -18 48 -25 15 -7 27 -16 27 -20
0 -4 5 -8 11 -8 5 0 58 -28 117 -63 59 -35 114 -66 122 -70 8 -4 22 -11 30
-17 23 -15 282 -163 311 -179 24 -12 32 -10 80 16 30 16 73 41 96 56 24 15 45
27 49 27 3 0 43 23 89 50 46 28 85 50 88 50 3 0 38 19 79 43 40 24 80 46 88
50 8 4 29 16 45 27 17 11 37 23 45 26 8 4 52 29 96 55 45 27 84 49 87 49 3 0
38 19 79 43 40 24 80 46 88 50 8 4 29 16 45 27 17 11 37 23 45 26 8 4 52 29
96 55 45 27 84 49 87 49 3 0 38 19 79 43 40 24 80 46 88 50 8 4 29 16 45 27
17 11 37 23 45 26 8 4 52 29 96 55 45 27 84 49 88 49 3 0 28 14 55 30 l50 31
41 -21 c23 -12 71 -39 107 -62 37 -22 76 -44 87 -49 12 -5 35 -18 51 -29 17
-11 37 -23 45 -27 8 -4 59 -32 112 -64 53 -32 106 -60 118 -64 28 -9 27 -52
-2 -65 -13 -6 -36 -19 -53 -30 -16 -11 -39 -24 -50 -29 -11 -5 -54 -29 -95
-53 -41 -24 -82 -47 -90 -51 -8 -4 -22 -11 -30 -17 -26 -17 -264 -155 -290
-167 -14 -7 -32 -17 -40 -23 -26 -17 -221 -130 -225 -130 -2 0 -64 -35 -137
-78 -73 -43 -140 -81 -148 -85 -8 -4 -22 -11 -30 -17 -26 -17 -234 -136 -250
-144 -8 -3 -28 -15 -45 -26 -16 -11 -37 -23 -45 -27 -8 -4 -59 -33 -113 -65
-54 -32 -101 -58 -103 -58 -3 0 -64 -35 -137 -78 -73 -43 -139 -81 -147 -85
-8 -4 -28 -16 -45 -27 -16 -11 -39 -24 -51 -29 -11 -5 -52 -28 -89 -51 -37
-23 -78 -46 -89 -51 -12 -5 -29 -14 -38 -21 -14 -10 -26 -8 -65 12 -26 13 -50
26 -53 29 -3 3 -19 13 -35 22 -66 34 -120 64 -125 69 -6 6 -51 31 -115 65 -27
14 -63 35 -80 45 -16 11 -41 25 -55 30 -13 6 -27 14 -30 18 -3 4 -21 15 -40
26 -108 57 -169 92 -203 113 -21 13 -48 28 -60 34 -12 5 -35 18 -52 29 -16 11
-41 25 -55 30 -13 6 -27 14 -30 18 -3 4 -27 18 -53 32 -26 14 -60 32 -75 40
-64 37 -168 96 -187 107 -11 6 -44 24 -72 38 -29 15 -53 31 -53 36 0 5 -8 9
-19 9 -10 0 -24 7 -31 15 -7 8 -17 15 -22 15 -6 0 -47 23 -93 50 -46 28 -86
50 -90 50 -4 0 -27 14 -52 30 -24 17 -50 30 -57 30 -6 0 -17 5 -23 11 -14 14
-50 35 -85 50 -16 6 -28 15 -28 20 0 5 -8 9 -18 9 -10 0 -23 5 -29 11 -13 13
-47 33 -83 49 -13 6 -27 14 -30 18 -3 4 -30 20 -60 35 -76 39 -100 53 -113 66
-6 6 -19 11 -29 11 -10 0 -18 4 -18 9 0 5 -13 14 -30 20 -16 5 -30 14 -30 20
0 5 -12 11 -27 13 -23 2 -29 8 -31 35 -3 28 1 35 25 45 15 7 30 15 33 18 3 3
21 13 40 24 19 10 55 29 80 43 25 13 49 28 55 34 5 5 17 9 27 9 10 0 18 4 18
9 0 5 12 14 28 20 35 15 71 36 85 50 6 6 19 11 29 11 10 0 18 3 18 8 0 4 26
21 58 37 31 17 59 33 62 36 15 18 51 22 82 9z m101 -995 c62 -36 119 -70 127
-75 8 -6 24 -15 35 -20 11 -6 34 -19 50 -30 17 -11 37 -23 45 -26 8 -4 52 -29
96 -55 45 -27 87 -49 93 -49 6 0 11 -4 11 -9 0 -5 12 -14 28 -20 27 -12 53
-26 107 -61 17 -11 41 -25 55 -30 13 -6 27 -14 30 -18 3 -4 16 -13 30 -20 14
-6 52 -27 85 -47 33 -19 69 -39 80 -45 11 -6 34 -19 50 -30 17 -11 37 -23 45
-27 15 -7 221 -125 250 -144 8 -5 24 -13 35 -18 11 -5 37 -21 58 -35 21 -14
40 -26 44 -26 3 0 39 -20 80 -45 40 -25 76 -45 79 -45 3 0 37 -19 75 -41 83
-50 95 -49 205 17 44 25 88 50 99 56 11 5 29 14 40 21 11 7 51 30 90 52 38 22
79 45 90 52 11 7 27 15 35 19 8 4 49 28 90 52 41 24 84 48 95 54 11 5 29 14
40 21 11 7 51 30 90 52 38 22 79 45 90 52 11 7 27 15 35 19 8 4 49 28 90 52
41 24 84 48 95 54 11 5 29 14 40 21 11 7 51 30 90 52 38 22 79 45 90 52 11 7
27 15 35 19 8 4 59 34 113 66 55 32 101 58 104 58 4 0 145 81 193 111 42 26
42 26 135 -31 28 -16 61 -35 75 -42 14 -7 65 -37 115 -66 49 -30 98 -58 110
-63 11 -5 34 -18 50 -29 17 -10 54 -31 83 -47 40 -21 52 -33 52 -50 0 -13 -8
-27 -17 -30 -10 -4 -62 -33 -116 -65 -54 -32 -101 -58 -103 -58 -3 0 -53 -28
-112 -63 -59 -35 -114 -66 -122 -70 -8 -4 -28 -16 -45 -27 -16 -11 -39 -24
-50 -29 -12 -5 -63 -35 -115 -66 -52 -31 -103 -61 -115 -66 -11 -5 -27 -13
-35 -19 -27 -18 -215 -125 -240 -138 -14 -6 -32 -16 -40 -22 -23 -15 -213
-125 -230 -133 -8 -4 -28 -16 -45 -27 -16 -11 -39 -24 -50 -29 -11 -5 -54 -29
-95 -53 -41 -24 -82 -47 -90 -51 -8 -4 -28 -16 -45 -27 -16 -11 -37 -23 -45
-27 -8 -4 -62 -34 -120 -68 -58 -34 -112 -65 -120 -68 -8 -4 -22 -11 -30 -17
-44 -29 -273 -160 -280 -160 -5 0 -15 -6 -22 -13 -25 -22 -79 -47 -104 -47
-13 0 -45 13 -71 28 -65 39 -205 117 -223 125 -8 4 -28 16 -45 27 -16 11 -39
24 -51 29 -11 5 -51 28 -88 50 -36 23 -69 41 -72 41 -4 0 -43 22 -88 49 -44
26 -88 51 -96 55 -8 3 -28 15 -45 25 -16 11 -46 28 -65 38 -48 26 -104 58
-175 99 -33 19 -71 40 -85 46 -14 7 -27 15 -30 19 -3 3 -18 13 -35 22 -16 8
-52 27 -80 42 -27 14 -63 35 -80 45 -16 11 -41 25 -55 30 -13 6 -27 14 -30 18
-3 4 -25 18 -50 30 -25 13 -72 39 -105 58 -33 19 -73 41 -90 50 -16 8 -43 23
-60 34 -16 10 -54 30 -82 45 -29 14 -53 30 -53 35 0 6 -8 10 -18 10 -10 0 -22
4 -27 9 -6 6 -30 21 -55 34 -25 14 -61 33 -80 43 -19 11 -37 22 -40 25 -3 4
-31 18 -62 33 -32 15 -58 32 -58 37 0 5 -8 9 -19 9 -10 0 -24 7 -31 15 -7 8
-18 15 -25 15 -7 0 -18 7 -25 15 -7 8 -21 15 -32 15 -10 0 -21 6 -24 14 -3 8
-18 16 -35 20 -24 5 -29 10 -29 36 0 24 6 33 28 43 15 6 29 15 32 19 3 4 17
12 30 18 36 16 70 36 83 49 6 6 19 11 28 11 9 0 22 7 29 15 7 8 21 15 31 15
11 0 19 4 19 10 0 5 15 16 33 24 17 8 55 29 82 45 28 17 75 43 105 58 30 15
61 34 68 40 25 24 64 13 175 -52z"/>
</g>
</svg>
